inDegrees=no
num_controls=7
num_derivatives=13
num_iterations=89
num_multipliers=7
num_parameters=0
num_slacks=7
num_states=26
objective=1.344214
objective_accelerations=0.052501
objective_balance=0.007211
objective_effort=0.037189
objective_height=0.352292
objective_ligament=0.895021
solver_duration=1221.680727
status=Solve_Succeeded
success=true
DataType=double
version=3
OpenSimVersion=4.5
endheader
time	/jointset/ground_pelvis/pelvis_tilt/value	/jointset/ground_pelvis/pelvis_tx/value	/jointset/ground_pelvis/pelvis_ty/value	/jointset/hip_l/hip_flexion_l/value	/jointset/hip_l/hip_adduction_l/value	/jointset/hip_l/hip_rotation_l/value	/jointset/back/lumbar_extension/value	/jointset/patellofemoral_l/patellar_flexion_l/value	/jointset/knee_l/knee_flexion_l/value	/jointset/knee_l/knee_adduction_l/value	/jointset/knee_l/knee_rotation_l/value	/jointset/ankle_l/ankle_angle_l/value	/jointset/subtalar_l/subtalar_angle_l/value	/jointset/ground_pelvis/pelvis_tilt/speed	/jointset/ground_pelvis/pelvis_tx/speed	/jointset/ground_pelvis/pelvis_ty/speed	/jointset/hip_l/hip_flexion_l/speed	/jointset/hip_l/hip_adduction_l/speed	/jointset/hip_l/hip_rotation_l/speed	/jointset/back/lumbar_extension/speed	/jointset/patellofemoral_l/patellar_flexion_l/speed	/jointset/knee_l/knee_flexion_l/speed	/jointset/knee_l/knee_adduction_l/speed	/jointset/knee_l/knee_rotation_l/speed	/jointset/ankle_l/ankle_angle_l/speed	/jointset/subtalar_l/subtalar_angle_l/speed	/forceset/tau_hip_flexion_l	/forceset/tau_hip_adduction_l	/forceset/tau_hip_rotation_l	/forceset/tau_knee_flexion_l	/forceset/tau_ankle_angle_l	/forceset/tau_subtalar_angle_l	/forceset/tau_lumbar_extension	lambda_cid13_p0	lambda_cid13_p1	lambda_cid13_p2	lambda_cid13_p3	lambda_cid13_p4	lambda_cid13_p5	lambda_cid14_p0	/jointset/ground_pelvis/pelvis_tilt/accel	/jointset/ground_pelvis/pelvis_tx/accel	/jointset/ground_pelvis/pelvis_ty/accel	/jointset/hip_l/hip_flexion_l/accel	/jointset/hip_l/hip_adduction_l/accel	/jointset/hip_l/hip_rotation_l/accel	/jointset/back/lumbar_extension/accel	/jointset/patellofemoral_l/patellar_flexion_l/accel	/jointset/knee_l/knee_flexion_l/accel	/jointset/knee_l/knee_adduction_l/accel	/jointset/knee_l/knee_rotation_l/accel	/jointset/ankle_l/ankle_angle_l/accel	/jointset/subtalar_l/subtalar_angle_l/accel	gamma_cid13_p0	gamma_cid13_p1	gamma_cid13_p2	gamma_cid13_p3	gamma_cid13_p4	gamma_cid13_p5	gamma_cid14_p0
0	-0.1313954346473964	0.04469704200952632	0.9022138108332645	0.3774924667018715	-0.2040744832452443	-0.2783569661083224	-0.01265067647494873	0.03223648243721476	0.03223648243721463	-0.06515537037941367	0.1744725489638752	-0.04231377076293093	0.04503883931733468	0	0	0	0	0	0	0	0	0	0	0	0	0	0.1809007455067773	-0.0713040145068532	-0.03034505701406801	-0.36842762246527	0.4238096688880057	-0.07656908987601603	-0.1114017906415576	92.10474035985716	15.96156985793665	-1.615833448582829	-29.11553989568121	-593.5061971992038	-53.25867869240825	-38.71513800091218	-3.904451256441434	-1.623425070252136	-1.06250378220839	11.86791421799409	-0.9949923524660776	2.61907886188598	-5.660196910684687	9.946461306467256	9.946461306466935	0.8983918160369316	0.1064430166261351	2.153440690258044	-0.4658333573646243	3.334953526012689e-08	1.9280748696894e-07	-1.482798343873521e-07	-2.517059458043409e-08	1.638547749007399e-07	1.462005283726797e-07	2.954482122811207e-08
0.01	-0.1315849269914321	0.04461874503337789	0.9021620698645245	0.3780698683120047	-0.2041241747720448	-0.2782264927311847	-0.01293385983359789	0.0327232428334173	0.03272324283341727	-0.06511319395876598	0.1744755556219677	-0.04220697072962555	0.04501540603373661	-0.03778427930208716	-0.01540062927460686	-0.01029667012441551	0.1147454886302023	-0.009994173304649589	0.02602126202831752	-0.05618690331482779	0.09688985965513579	0.09688985965513462	0.008178893851075347	0.0005508953137258697	0.02146486906937375	-0.004713017992732068	0.1811751177923614	-0.0841968532227621	-0.03039608384607517	-0.3749022533479878	0.433615838633167	-0.066894768935157	-0.1103481292857938	95.75609228307992	11.61839972036724	-1.491924483536957	-33.8271152865991	-595.2820625030068	-62.74000651083561	-38.73028800101061	-3.698290561453581	-1.459571996929377	-1.005487313065937	11.16764161905694	-1.010019788103809	2.58267086750324	-5.5304717796266	9.490909448267812	9.490909448267848	0.7391918964758525	0.02188214449999573	2.158744637728608	-0.4780034383879982	7.782665716854082e-09	1.165912505437634e-07	-1.076546233676007e-07	1.130154596916509e-08	-3.241449371259392e-08	9.976854528380714e-08	2.069457681178165e-08
0.02	-0.132148836987361	0.04439420373631051	0.9020089144574388	0.3797726798951446	-0.2042754860256197	-0.2778380025349239	-0.01376541917294431	0.03416503405681742	0.03416503405681743	-0.06499691785424049	0.1744825651043483	-0.04188237508113612	0.04494404908657913	-0.07488353037862354	-0.02924886418379167	-0.02028288766914375	0.2250819946013502	-0.02032394535487109	0.05160336382457916	-0.1096751961394442	0.1910061654395146	0.1910061654395143	0.014819936775523	0.0008005648576190073	0.04355912303681019	-0.009584732711884158	0.181449490077945	-0.09708969193867104	-0.0304471106780828	-0.381376884230706	0.4434220083783283	-0.05722044799429797	-0.1092944679300302	99.5006480592512	7.262789057109345	-1.370455618590974	-38.7307289512171	-595.6871257592654	-72.03900957519616	-38.77483495477197	-3.76744561133135	-1.312946197167727	-1.000413266270936	10.9861176861832	-1.062112101580014	2.531246815474805	-5.120474812642202	9.391750532315859	9.391750532315935	0.5908216307165576	0.04619786265958866	2.279317669870577	-0.4975727026486298	-1.778420382641872e-08	4.037501411858682e-08	-6.702941234784924e-08	4.777368651876427e-08	-2.286837623259278e-07	5.333656219493458e-08	1.184433239545122e-08
0.03	-0.1330789989753712	0.04403557980860827	0.9017569207443813	0.3825599188235084	-0.204531517679243	-0.2771970358563114	-0.01511913645306144	0.03653442919652782	0.03653442919652783	-0.0648217573327151	0.1744918062206554	-0.04133790140998412	0.0448222746960425	-0.110881960296906	-0.04255248496464497	-0.03011231991499033	0.3319158394852152	-0.03090104462529574	0.07650483274475819	-0.1607161189602719	0.2824285618156355	0.2824285618156371	0.02000367216055492	0.001017955702975979	0.06502139159764099	-0.01487614262068805	0.168397934411679	-0.08625243387194784	-0.02967792126652071	-0.3601353982608399	0.4133135648626906	-0.0557653216675485	-0.1000411500253003	89.88033168603205	7.749183218753284	-0.8013898415452557	-31.42125000377377	-594.8468746409827	-68.42571039357476	-38.84712282505336	-3.475999168349138	-1.350544857649963	-0.9737244793970993	10.46452695895153	-1.058298526537704	2.456838158685747	-5.043079878242524	8.950836754113872	8.950836754114119	0.4508708212471866	0.005066300777760546	2.032547217951154	-0.5608223822657299	-1.4223081310219e-08	1.525840913346176e-09	-6.656087514087212e-08	4.809684403058157e-08	-3.006052430693378e-07	5.921782447560998e-08	9.751686913124916e-09
0.04	-0.1343611367598188	0.04354162470527632	0.9014067294537341	0.3864019980146036	-0.2048938782629234	-0.2763096062428179	-0.01697269873367474	0.03980471881277017	0.0398047188127702	-0.06460101519156913	0.1745023325664768	-0.04058823189947146	0.04464440675696394	-0.1452786896660853	-0.05631509930973265	-0.03992240318706065	0.436050047147614	-0.0415897313662809	0.100895950800789	-0.2096441962386752	0.3711850607459032	0.3711850607459064	0.02393626069961392	0.00105761076049339	0.08459829090894463	-0.02080344242027039	0.1553463787454128	-0.07541517580522464	-0.02890873185495901	-0.3388939122909739	0.3832051213470528	-0.054310195340799	-0.09078783212057112	80.34543581263209	8.228166770200195	-0.2397556483294876	-24.29518880735029	-592.7589077026372	-64.64247415735531	-38.94555446443347	-3.447105501510654	-1.404744910014596	-0.9965434715156876	10.44619024188982	-1.084429595692114	2.429176642645166	-4.697905704157299	8.858571043145224	8.858571043145226	0.3405922615219732	0.0106507050916807	1.902243819965139	-0.6247506808043192	-1.006138163815386e-08	-3.65528773801432e-08	-6.69203105898285e-08	4.767466168594976e-08	-3.699628518979041e-07	6.617771037215236e-08	7.798373367582204e-09
0.05	-0.1359803700773167	0.04290909808219742	0.9009584147280847	0.3912718393897567	-0.2053634644757268	-0.2751810800416104	-0.0193045516113007	0.04394974686684472	0.04394974686684469	-0.06434688394744317	0.1745126997511554	-0.03965028281114234	0.04440480260947054	-0.1783713989891113	-0.07012935879870445	-0.04974086760202968	0.5373824694987275	-0.05232300173305669	0.1247182301220498	-0.2563760864487682	0.4573776609131972	0.4573776609131977	0.02670638907954416	0.0009884417628610201	0.1028550383514807	-0.02715477306640262	0.1474720638209041	-0.07129808055160927	-0.02853971825095741	-0.3298802871082605	0.3710300225509803	-0.0523636379370257	-0.08474501126474598	76.61581201020081	7.852139150335985	0.02998401191544615	-22.27073606221251	-591.6254745695642	-63.81974072745742	-39.06802675300052	-3.210856941684122	-1.360626960722346	-0.9746213284003353	9.896407868877228	-1.067070452292299	2.345101658280633	-4.608286753768827	8.433169586262304	8.433169586261926	0.2176625380118888	-0.01980282264042777	1.766916901127093	-0.6459178227145411	-1.888534124049903e-08	-1.08348806244397e-07	-1.830742870159159e-08	5.360387508773095e-08	-4.496469070698085e-07	2.965643000089794e-08	-2.626500733352533e-09
0.06	-0.137924631146842	0.042140256765752	0.9004118906779028	0.3971389329158518	-0.2059402423312222	-0.2738170614309074	-0.02209321460589434	0.04894341393914026	0.04894341393914031	-0.06407056353716138	0.1745215548217676	-0.038533860909442	0.04410056644227645	-0.2102842400715576	-0.08357803798303209	-0.05956426809351237	0.6355004773360453	-0.06302805990471194	0.1479944326998727	-0.3010062196322015	0.5409128643901246	0.5409128643901228	0.02837409393080808	0.0007551879472417178	0.120292853583187	-0.0337298463604095	0.1395977488963945	-0.06718098529799409	-0.02817070464695531	-0.3208666619255476	0.3588549237549075	-0.05041708053325276	-0.0787021904089214	72.96148840188407	7.468296296708072	0.2948411808383355	-20.40663263603509	-589.3892391644822	-62.84446694634962	-39.21213610664302	-3.211131853394692	-1.331628849085764	-0.9975306868184173	9.80330733913066	-1.078787156668007	2.319961293957419	-4.277554298825324	8.327091705071998	8.327091705071988	0.120107555788719	-0.02216625850547153	1.738457377799193	-0.6694992103792503	-2.8256065443872e-08	-1.815644071326829e-07	3.236744549557975e-08	5.980051567883478e-08	-5.297657599824849e-07	-8.695636318474214e-09	-1.340807212083009e-08
